<svg xmlns="http://www.w3.org/2000/svg" viewBox="0 0 256 256">
  <defs>
    <linearGradient id="tile" x1="42" y1="30" x2="218" y2="228" gradientUnits="userSpaceOnUse">
      <stop offset="0" stop-color="#17212b"/>
      <stop offset="1" stop-color="#243447"/>
    </linearGradient>
    <linearGradient id="pet" x1="90" y1="86" x2="205" y2="210" gradientUnits="userSpaceOnUse">
      <stop offset="0" stop-color="#3ee6a8"/>
      <stop offset="1" stop-color="#2f8cff"/>
    </linearGradient>
  </defs>
  <rect x="20" y="20" width="216" height="216" rx="44" fill="url(#tile)"/>
  <path d="M77 55v142l35-32 22 49 31-14-23-50h48L77 55z" fill="#f7fbff"/>
  <path d="M93 96v61l15-14 14 31 11-5-14-31h27L93 96z" fill="#17212b" opacity=".24"/>
  <circle cx="176" cy="160" r="38" fill="url(#pet)"/>
  <circle cx="163" cy="150" r="7" fill="#102030"/>
  <circle cx="190" cy="150" r="7" fill="#102030"/>
  <path d="M161 174c12 11 26 11 38 0" fill="none" stroke="#102030" stroke-width="8" stroke-linecap="round"/>
  <path d="M151 115l12 17 20-28 8 32 29-13-16 30 27 12-31 7 9 31-27-18-23 24 2-33-32-2 29-16-18-26z" fill="#ffffff" opacity=".22"/>
</svg>
